<mxfile host="app.diagrams.net" agent="Mozilla/5.0 (Windows NT 10.0; Win64; x64; rv:136.0) Gecko/20100101 Firefox/136.0" version="26.1.0">
  <diagram name="Page-1" id="2YBvvXClWsGukQMizWep">
    <mxGraphModel dx="4350" dy="2867" grid="1" gridSize="10" guides="1" tooltips="1" connect="1" arrows="1" fold="1" page="1" pageScale="1" pageWidth="850" pageHeight="1100" math="0" shadow="0">
      <root>
        <mxCell id="0" />
        <mxCell id="1" parent="0" />
        <mxCell id="DykiJatmnFDvPU9gKeMc-1" value="" style="rounded=0;whiteSpace=wrap;html=1;" vertex="1" parent="1">
          <mxGeometry x="-400" y="-150" width="2620" height="2100" as="geometry" />
        </mxCell>
        <mxCell id="aM9ryv3xv72pqoxQDRHE-1" value="User" style="shape=umlLifeline;perimeter=lifelinePerimeter;whiteSpace=wrap;html=1;container=0;dropTarget=0;collapsible=0;recursiveResize=0;outlineConnect=0;portConstraint=eastwest;newEdgeStyle={&quot;edgeStyle&quot;:&quot;elbowEdgeStyle&quot;,&quot;elbow&quot;:&quot;vertical&quot;,&quot;curved&quot;:0,&quot;rounded&quot;:0};fontSize=14;" parent="1" vertex="1">
          <mxGeometry x="40" y="40" width="100" height="1760" as="geometry" />
        </mxCell>
        <mxCell id="aM9ryv3xv72pqoxQDRHE-2" value="" style="html=1;points=[];perimeter=orthogonalPerimeter;outlineConnect=0;targetShapes=umlLifeline;portConstraint=eastwest;newEdgeStyle={&quot;edgeStyle&quot;:&quot;elbowEdgeStyle&quot;,&quot;elbow&quot;:&quot;vertical&quot;,&quot;curved&quot;:0,&quot;rounded&quot;:0};fontSize=14;" parent="aM9ryv3xv72pqoxQDRHE-1" vertex="1">
          <mxGeometry x="45" y="80" width="10" height="1640" as="geometry" />
        </mxCell>
        <mxCell id="aM9ryv3xv72pqoxQDRHE-5" value="Aunthentication Service" style="shape=umlLifeline;perimeter=lifelinePerimeter;whiteSpace=wrap;html=1;container=0;dropTarget=0;collapsible=0;recursiveResize=0;outlineConnect=0;portConstraint=eastwest;newEdgeStyle={&quot;edgeStyle&quot;:&quot;elbowEdgeStyle&quot;,&quot;elbow&quot;:&quot;vertical&quot;,&quot;curved&quot;:0,&quot;rounded&quot;:0};fontSize=14;" parent="1" vertex="1">
          <mxGeometry x="240" y="40" width="100" height="1760" as="geometry" />
        </mxCell>
        <mxCell id="aM9ryv3xv72pqoxQDRHE-6" value="" style="html=1;points=[];perimeter=orthogonalPerimeter;outlineConnect=0;targetShapes=umlLifeline;portConstraint=eastwest;newEdgeStyle={&quot;edgeStyle&quot;:&quot;elbowEdgeStyle&quot;,&quot;elbow&quot;:&quot;vertical&quot;,&quot;curved&quot;:0,&quot;rounded&quot;:0};fontSize=14;" parent="aM9ryv3xv72pqoxQDRHE-5" vertex="1">
          <mxGeometry x="45" y="80" width="10" height="1640" as="geometry" />
        </mxCell>
        <mxCell id="aM9ryv3xv72pqoxQDRHE-7" value="Enter Login Credentials" style="html=1;verticalAlign=bottom;endArrow=block;edgeStyle=elbowEdgeStyle;elbow=vertical;curved=0;rounded=0;fontSize=14;" parent="1" source="aM9ryv3xv72pqoxQDRHE-2" target="aM9ryv3xv72pqoxQDRHE-6" edge="1">
          <mxGeometry relative="1" as="geometry">
            <mxPoint x="195" y="130" as="sourcePoint" />
            <Array as="points">
              <mxPoint x="180" y="120" />
            </Array>
          </mxGeometry>
        </mxCell>
        <mxCell id="aM9ryv3xv72pqoxQDRHE-9" value="Validate and Redirect&lt;div&gt;&amp;nbsp;to Homepage&lt;/div&gt;" style="html=1;verticalAlign=middle;endArrow=block;elbow=vertical;rounded=0;fontSize=14;" parent="1" source="aM9ryv3xv72pqoxQDRHE-6" edge="1">
          <mxGeometry x="-0.0182" relative="1" as="geometry">
            <mxPoint x="175" y="160" as="sourcePoint" />
            <mxPoint x="100" y="160" as="targetPoint" />
            <mxPoint as="offset" />
          </mxGeometry>
        </mxCell>
        <mxCell id="xishepXIR4gV4NVoZ816-12" value="Home Page" style="shape=umlLifeline;perimeter=lifelinePerimeter;whiteSpace=wrap;html=1;container=0;dropTarget=0;collapsible=0;recursiveResize=0;outlineConnect=0;portConstraint=eastwest;newEdgeStyle={&quot;edgeStyle&quot;:&quot;elbowEdgeStyle&quot;,&quot;elbow&quot;:&quot;vertical&quot;,&quot;curved&quot;:0,&quot;rounded&quot;:0};fontSize=14;" parent="1" vertex="1">
          <mxGeometry x="440" y="40" width="100" height="1760" as="geometry" />
        </mxCell>
        <mxCell id="xishepXIR4gV4NVoZ816-13" value="" style="html=1;points=[];perimeter=orthogonalPerimeter;outlineConnect=0;targetShapes=umlLifeline;portConstraint=eastwest;newEdgeStyle={&quot;edgeStyle&quot;:&quot;elbowEdgeStyle&quot;,&quot;elbow&quot;:&quot;vertical&quot;,&quot;curved&quot;:0,&quot;rounded&quot;:0};fontSize=14;" parent="xishepXIR4gV4NVoZ816-12" vertex="1">
          <mxGeometry x="45" y="80" width="10" height="1640" as="geometry" />
        </mxCell>
        <mxCell id="xishepXIR4gV4NVoZ816-15" value="Messaging Service" style="shape=umlLifeline;perimeter=lifelinePerimeter;whiteSpace=wrap;html=1;container=0;dropTarget=0;collapsible=0;recursiveResize=0;outlineConnect=0;portConstraint=eastwest;newEdgeStyle={&quot;edgeStyle&quot;:&quot;elbowEdgeStyle&quot;,&quot;elbow&quot;:&quot;vertical&quot;,&quot;curved&quot;:0,&quot;rounded&quot;:0};fontSize=14;" parent="1" vertex="1">
          <mxGeometry x="640" y="40" width="100" height="1760" as="geometry" />
        </mxCell>
        <mxCell id="xishepXIR4gV4NVoZ816-16" value="" style="html=1;points=[];perimeter=orthogonalPerimeter;outlineConnect=0;targetShapes=umlLifeline;portConstraint=eastwest;newEdgeStyle={&quot;edgeStyle&quot;:&quot;elbowEdgeStyle&quot;,&quot;elbow&quot;:&quot;vertical&quot;,&quot;curved&quot;:0,&quot;rounded&quot;:0};fontSize=14;" parent="xishepXIR4gV4NVoZ816-15" vertex="1">
          <mxGeometry x="45" y="80" width="10" height="1640" as="geometry" />
        </mxCell>
        <mxCell id="xishepXIR4gV4NVoZ816-23" value="&lt;font&gt;Deliver message&amp;nbsp;&lt;/font&gt;" style="edgeStyle=elbowEdgeStyle;rounded=0;orthogonalLoop=1;jettySize=auto;html=1;elbow=vertical;curved=0;fontSize=14;" parent="1" source="xishepXIR4gV4NVoZ816-18" edge="1">
          <mxGeometry relative="1" as="geometry">
            <mxPoint x="1080" y="320" as="targetPoint" />
            <Array as="points">
              <mxPoint x="1010" y="320" />
              <mxPoint x="1290" y="360" />
            </Array>
          </mxGeometry>
        </mxCell>
        <mxCell id="xishepXIR4gV4NVoZ816-18" value="Notification Service" style="shape=umlLifeline;perimeter=lifelinePerimeter;whiteSpace=wrap;html=1;container=0;dropTarget=0;collapsible=0;recursiveResize=0;outlineConnect=0;portConstraint=eastwest;newEdgeStyle={&quot;edgeStyle&quot;:&quot;elbowEdgeStyle&quot;,&quot;elbow&quot;:&quot;vertical&quot;,&quot;curved&quot;:0,&quot;rounded&quot;:0};fontSize=14;" parent="1" vertex="1">
          <mxGeometry x="840" y="40" width="100" height="1760" as="geometry" />
        </mxCell>
        <mxCell id="xishepXIR4gV4NVoZ816-19" value="" style="html=1;points=[];perimeter=orthogonalPerimeter;outlineConnect=0;targetShapes=umlLifeline;portConstraint=eastwest;newEdgeStyle={&quot;edgeStyle&quot;:&quot;elbowEdgeStyle&quot;,&quot;elbow&quot;:&quot;vertical&quot;,&quot;curved&quot;:0,&quot;rounded&quot;:0};fontSize=14;" parent="xishepXIR4gV4NVoZ816-18" vertex="1">
          <mxGeometry x="45" y="80" width="10" height="1640" as="geometry" />
        </mxCell>
        <mxCell id="xishepXIR4gV4NVoZ816-26" value="Enter Registration Details&amp;nbsp;" style="edgeStyle=elbowEdgeStyle;rounded=0;orthogonalLoop=1;jettySize=auto;html=1;elbow=vertical;curved=0;fontSize=14;" parent="1" edge="1">
          <mxGeometry relative="1" as="geometry">
            <mxPoint x="97.5" y="520" as="sourcePoint" />
            <mxPoint x="1282.5" y="520" as="targetPoint" />
            <Array as="points">
              <mxPoint x="1177.5" y="520" />
              <mxPoint x="1287.5" y="370" />
              <mxPoint x="1377.5" y="420" />
            </Array>
          </mxGeometry>
        </mxCell>
        <mxCell id="xishepXIR4gV4NVoZ816-21" value="Recipient" style="shape=umlLifeline;perimeter=lifelinePerimeter;whiteSpace=wrap;html=1;container=0;dropTarget=0;collapsible=0;recursiveResize=0;outlineConnect=0;portConstraint=eastwest;newEdgeStyle={&quot;edgeStyle&quot;:&quot;elbowEdgeStyle&quot;,&quot;elbow&quot;:&quot;vertical&quot;,&quot;curved&quot;:0,&quot;rounded&quot;:0};fontSize=14;" parent="1" vertex="1">
          <mxGeometry x="1040" y="40" width="100" height="1760" as="geometry" />
        </mxCell>
        <mxCell id="xishepXIR4gV4NVoZ816-22" value="" style="html=1;points=[];perimeter=orthogonalPerimeter;outlineConnect=0;targetShapes=umlLifeline;portConstraint=eastwest;newEdgeStyle={&quot;edgeStyle&quot;:&quot;elbowEdgeStyle&quot;,&quot;elbow&quot;:&quot;vertical&quot;,&quot;curved&quot;:0,&quot;rounded&quot;:0};fontSize=14;" parent="xishepXIR4gV4NVoZ816-21" vertex="1">
          <mxGeometry x="45" y="80" width="10" height="1640" as="geometry" />
        </mxCell>
        <mxCell id="xishepXIR4gV4NVoZ816-24" value="Login Page" style="shape=umlLifeline;perimeter=lifelinePerimeter;whiteSpace=wrap;html=1;container=0;dropTarget=0;collapsible=0;recursiveResize=0;outlineConnect=0;portConstraint=eastwest;newEdgeStyle={&quot;edgeStyle&quot;:&quot;elbowEdgeStyle&quot;,&quot;elbow&quot;:&quot;vertical&quot;,&quot;curved&quot;:0,&quot;rounded&quot;:0};fontSize=14;" parent="1" vertex="1">
          <mxGeometry x="1240" y="40" width="100" height="1760" as="geometry" />
        </mxCell>
        <mxCell id="xishepXIR4gV4NVoZ816-25" value="" style="html=1;points=[];perimeter=orthogonalPerimeter;outlineConnect=0;targetShapes=umlLifeline;portConstraint=eastwest;newEdgeStyle={&quot;edgeStyle&quot;:&quot;elbowEdgeStyle&quot;,&quot;elbow&quot;:&quot;vertical&quot;,&quot;curved&quot;:0,&quot;rounded&quot;:0};fontSize=14;" parent="xishepXIR4gV4NVoZ816-24" vertex="1">
          <mxGeometry x="45" y="80" width="10" height="1640" as="geometry" />
        </mxCell>
        <mxCell id="xishepXIR4gV4NVoZ816-27" value="Database" style="shape=umlLifeline;perimeter=lifelinePerimeter;whiteSpace=wrap;html=1;container=0;dropTarget=0;collapsible=0;recursiveResize=0;outlineConnect=0;portConstraint=eastwest;newEdgeStyle={&quot;edgeStyle&quot;:&quot;elbowEdgeStyle&quot;,&quot;elbow&quot;:&quot;vertical&quot;,&quot;curved&quot;:0,&quot;rounded&quot;:0};fontSize=14;" parent="1" vertex="1">
          <mxGeometry x="1440" y="40" width="100" height="1760" as="geometry" />
        </mxCell>
        <mxCell id="xishepXIR4gV4NVoZ816-28" value="" style="html=1;points=[];perimeter=orthogonalPerimeter;outlineConnect=0;targetShapes=umlLifeline;portConstraint=eastwest;newEdgeStyle={&quot;edgeStyle&quot;:&quot;elbowEdgeStyle&quot;,&quot;elbow&quot;:&quot;vertical&quot;,&quot;curved&quot;:0,&quot;rounded&quot;:0};fontSize=14;" parent="xishepXIR4gV4NVoZ816-27" vertex="1">
          <mxGeometry x="45" y="80" width="10" height="1640" as="geometry" />
        </mxCell>
        <mxCell id="xishepXIR4gV4NVoZ816-30" value="&lt;font style=&quot;font-size: 11px;&quot;&gt;Event Management Page&lt;/font&gt;" style="shape=umlLifeline;perimeter=lifelinePerimeter;whiteSpace=wrap;html=1;container=0;dropTarget=0;collapsible=0;recursiveResize=0;outlineConnect=0;portConstraint=eastwest;newEdgeStyle={&quot;edgeStyle&quot;:&quot;elbowEdgeStyle&quot;,&quot;elbow&quot;:&quot;vertical&quot;,&quot;curved&quot;:0,&quot;rounded&quot;:0};fontSize=14;" parent="1" vertex="1">
          <mxGeometry x="1640" y="40" width="100" height="1760" as="geometry" />
        </mxCell>
        <mxCell id="xishepXIR4gV4NVoZ816-31" value="" style="html=1;points=[];perimeter=orthogonalPerimeter;outlineConnect=0;targetShapes=umlLifeline;portConstraint=eastwest;newEdgeStyle={&quot;edgeStyle&quot;:&quot;elbowEdgeStyle&quot;,&quot;elbow&quot;:&quot;vertical&quot;,&quot;curved&quot;:0,&quot;rounded&quot;:0};fontSize=14;" parent="xishepXIR4gV4NVoZ816-30" vertex="1">
          <mxGeometry x="45" y="80" width="10" height="1640" as="geometry" />
        </mxCell>
        <mxCell id="xishepXIR4gV4NVoZ816-33" value="Users" style="shape=umlLifeline;perimeter=lifelinePerimeter;whiteSpace=wrap;html=1;container=0;dropTarget=0;collapsible=0;recursiveResize=0;outlineConnect=0;portConstraint=eastwest;newEdgeStyle={&quot;edgeStyle&quot;:&quot;elbowEdgeStyle&quot;,&quot;elbow&quot;:&quot;vertical&quot;,&quot;curved&quot;:0,&quot;rounded&quot;:0};fontSize=14;" parent="1" vertex="1">
          <mxGeometry x="1840" y="40" width="100" height="1760" as="geometry" />
        </mxCell>
        <mxCell id="xishepXIR4gV4NVoZ816-34" value="" style="html=1;points=[];perimeter=orthogonalPerimeter;outlineConnect=0;targetShapes=umlLifeline;portConstraint=eastwest;newEdgeStyle={&quot;edgeStyle&quot;:&quot;elbowEdgeStyle&quot;,&quot;elbow&quot;:&quot;vertical&quot;,&quot;curved&quot;:0,&quot;rounded&quot;:0};fontSize=14;" parent="xishepXIR4gV4NVoZ816-33" vertex="1">
          <mxGeometry x="45" y="80" width="10" height="1640" as="geometry" />
        </mxCell>
        <mxCell id="xishepXIR4gV4NVoZ816-36" value="Profile Page" style="shape=umlLifeline;perimeter=lifelinePerimeter;whiteSpace=wrap;html=1;container=0;dropTarget=0;collapsible=0;recursiveResize=0;outlineConnect=0;portConstraint=eastwest;newEdgeStyle={&quot;edgeStyle&quot;:&quot;elbowEdgeStyle&quot;,&quot;elbow&quot;:&quot;vertical&quot;,&quot;curved&quot;:0,&quot;rounded&quot;:0};fontSize=14;" parent="1" vertex="1">
          <mxGeometry x="2040" y="40" width="100" height="1760" as="geometry" />
        </mxCell>
        <mxCell id="xishepXIR4gV4NVoZ816-37" value="" style="html=1;points=[];perimeter=orthogonalPerimeter;outlineConnect=0;targetShapes=umlLifeline;portConstraint=eastwest;newEdgeStyle={&quot;edgeStyle&quot;:&quot;elbowEdgeStyle&quot;,&quot;elbow&quot;:&quot;vertical&quot;,&quot;curved&quot;:0,&quot;rounded&quot;:0};fontSize=14;" parent="xishepXIR4gV4NVoZ816-36" vertex="1">
          <mxGeometry x="45" y="80" width="10" height="1640" as="geometry" />
        </mxCell>
        <mxCell id="xishepXIR4gV4NVoZ816-41" value="Navigate to Messaging System&amp;nbsp;" style="edgeStyle=none;orthogonalLoop=1;jettySize=auto;html=1;rounded=0;fontSize=14;" parent="1" edge="1">
          <mxGeometry width="80" relative="1" as="geometry">
            <mxPoint x="95" y="200" as="sourcePoint" />
            <mxPoint x="480" y="200" as="targetPoint" />
            <Array as="points">
              <mxPoint x="400" y="200" />
            </Array>
          </mxGeometry>
        </mxCell>
        <mxCell id="xishepXIR4gV4NVoZ816-43" value="&lt;font&gt;Notify recipient&amp;nbsp;&lt;/font&gt;" style="endArrow=classic;html=1;rounded=0;fontSize=14;" parent="1" edge="1">
          <mxGeometry width="50" height="50" relative="1" as="geometry">
            <mxPoint x="700" y="280" as="sourcePoint" />
            <mxPoint x="880" y="280" as="targetPoint" />
            <Array as="points" />
          </mxGeometry>
        </mxCell>
        <mxCell id="xishepXIR4gV4NVoZ816-44" value="Return Matching Profiles" style="endArrow=classic;html=1;rounded=0;fontSize=14;" parent="1" edge="1">
          <mxGeometry width="50" height="50" relative="1" as="geometry">
            <mxPoint x="1480" y="1560" as="sourcePoint" />
            <mxPoint x="500" y="1560" as="targetPoint" />
          </mxGeometry>
        </mxCell>
        <mxCell id="xishepXIR4gV4NVoZ816-45" value="Query User Details&amp;nbsp;" style="endArrow=classic;html=1;rounded=0;fontSize=14;" parent="1" edge="1">
          <mxGeometry width="50" height="50" relative="1" as="geometry">
            <mxPoint x="500" y="1520" as="sourcePoint" />
            <mxPoint x="1480" y="1520" as="targetPoint" />
          </mxGeometry>
        </mxCell>
        <mxCell id="xishepXIR4gV4NVoZ816-46" value="Enter Search Query" style="endArrow=classic;html=1;rounded=0;fontSize=14;" parent="1" source="aM9ryv3xv72pqoxQDRHE-2" edge="1">
          <mxGeometry width="50" height="50" relative="1" as="geometry">
            <mxPoint x="80.00333333333326" y="1480" as="sourcePoint" />
            <mxPoint x="480" y="1480" as="targetPoint" />
          </mxGeometry>
        </mxCell>
        <mxCell id="xishepXIR4gV4NVoZ816-47" value="Show Success Message" style="endArrow=classic;html=1;rounded=0;fontSize=14;" parent="1" edge="1">
          <mxGeometry width="50" height="50" relative="1" as="geometry">
            <mxPoint x="2080" y="1360" as="sourcePoint" />
            <mxPoint x="100.00333333333326" y="1360" as="targetPoint" />
          </mxGeometry>
        </mxCell>
        <mxCell id="xishepXIR4gV4NVoZ816-48" value="Confirmation of&amp;nbsp; Update&amp;nbsp;" style="endArrow=classic;html=1;rounded=0;fontSize=14;" parent="1" edge="1">
          <mxGeometry width="50" height="50" relative="1" as="geometry">
            <mxPoint x="1500" y="1320" as="sourcePoint" />
            <mxPoint x="2080" y="1320" as="targetPoint" />
          </mxGeometry>
        </mxCell>
        <mxCell id="xishepXIR4gV4NVoZ816-49" value="Validate and Store&lt;div&gt;Updated Details&lt;/div&gt;" style="endArrow=classic;html=1;rounded=0;fontSize=14;" parent="1" edge="1">
          <mxGeometry width="50" height="50" relative="1" as="geometry">
            <mxPoint x="2080" y="1280" as="sourcePoint" />
            <mxPoint x="1500" y="1280" as="targetPoint" />
          </mxGeometry>
        </mxCell>
        <mxCell id="xishepXIR4gV4NVoZ816-50" value="Edit And Update Details&amp;nbsp;" style="endArrow=classic;html=1;rounded=0;fontSize=14;" parent="1" edge="1">
          <mxGeometry width="50" height="50" relative="1" as="geometry">
            <mxPoint x="100" y="1240" as="sourcePoint" />
            <mxPoint x="2080" y="1240" as="targetPoint" />
          </mxGeometry>
        </mxCell>
        <mxCell id="xishepXIR4gV4NVoZ816-51" value="Navigate to Profile Section&amp;nbsp;" style="endArrow=classic;html=1;rounded=0;fontSize=14;" parent="1" edge="1">
          <mxGeometry width="50" height="50" relative="1" as="geometry">
            <mxPoint x="100" y="1200" as="sourcePoint" />
            <mxPoint x="2080" y="1200" as="targetPoint" />
          </mxGeometry>
        </mxCell>
        <mxCell id="xishepXIR4gV4NVoZ816-52" value="Send Event Notification&amp;nbsp;" style="endArrow=classic;html=1;rounded=0;fontSize=14;" parent="1" edge="1">
          <mxGeometry width="50" height="50" relative="1" as="geometry">
            <mxPoint x="900" y="1080" as="sourcePoint" />
            <mxPoint x="1880" y="1080" as="targetPoint" />
          </mxGeometry>
        </mxCell>
        <mxCell id="xishepXIR4gV4NVoZ816-53" value="Notify Users About The Event&amp;nbsp;" style="endArrow=classic;html=1;rounded=0;fontSize=14;" parent="1" edge="1">
          <mxGeometry width="50" height="50" relative="1" as="geometry">
            <mxPoint x="1680" y="1040" as="sourcePoint" />
            <mxPoint x="900" y="1040" as="targetPoint" />
            <Array as="points" />
          </mxGeometry>
        </mxCell>
        <mxCell id="xishepXIR4gV4NVoZ816-54" value="Confirmation&amp;nbsp;" style="endArrow=classic;html=1;rounded=0;fontSize=14;" parent="1" edge="1">
          <mxGeometry width="50" height="50" relative="1" as="geometry">
            <mxPoint x="1500" y="998.89" as="sourcePoint" />
            <mxPoint x="1680" y="998.89" as="targetPoint" />
            <Array as="points">
              <mxPoint x="1600" y="998.89" />
            </Array>
          </mxGeometry>
        </mxCell>
        <mxCell id="xishepXIR4gV4NVoZ816-55" value="Validate and&amp;nbsp;&lt;div&gt;Store Event&amp;nbsp;&lt;/div&gt;" style="endArrow=classic;html=1;rounded=0;fontSize=14;" parent="1" edge="1">
          <mxGeometry width="50" height="50" relative="1" as="geometry">
            <mxPoint x="1685" y="960.0000000000005" as="sourcePoint" />
            <mxPoint x="1500" y="960" as="targetPoint" />
          </mxGeometry>
        </mxCell>
        <mxCell id="xishepXIR4gV4NVoZ816-56" value="Redirect User&amp;nbsp;&lt;div&gt;to Homepage&amp;nbsp;&lt;/div&gt;" style="endArrow=classic;html=1;rounded=0;fontSize=14;" parent="1" target="xishepXIR4gV4NVoZ816-13" edge="1">
          <mxGeometry x="0.0833" width="50" height="50" relative="1" as="geometry">
            <mxPoint x="300" y="839.17" as="sourcePoint" />
            <mxPoint x="470" y="839" as="targetPoint" />
            <mxPoint as="offset" />
          </mxGeometry>
        </mxCell>
        <mxCell id="xishepXIR4gV4NVoZ816-57" value="Confirm Credentials&amp;nbsp;" style="endArrow=classic;html=1;rounded=0;fontSize=14;" parent="1" edge="1">
          <mxGeometry width="50" height="50" relative="1" as="geometry">
            <mxPoint x="1480" y="800" as="sourcePoint" />
            <mxPoint x="300" y="800" as="targetPoint" />
          </mxGeometry>
        </mxCell>
        <mxCell id="xishepXIR4gV4NVoZ816-58" value="Verify User Details&amp;nbsp;" style="endArrow=classic;html=1;rounded=0;fontSize=14;" parent="1" edge="1">
          <mxGeometry width="50" height="50" relative="1" as="geometry">
            <mxPoint x="300" y="760" as="sourcePoint" />
            <mxPoint x="1480" y="760" as="targetPoint" />
          </mxGeometry>
        </mxCell>
        <mxCell id="xishepXIR4gV4NVoZ816-59" value="Validate Credentials&amp;nbsp;" style="endArrow=classic;html=1;rounded=0;fontSize=14;" parent="1" edge="1">
          <mxGeometry width="50" height="50" relative="1" as="geometry">
            <mxPoint x="1280" y="720" as="sourcePoint" />
            <mxPoint x="300" y="720" as="targetPoint" />
          </mxGeometry>
        </mxCell>
        <mxCell id="xishepXIR4gV4NVoZ816-60" value="Enter Login Credentials&amp;nbsp;" style="endArrow=classic;html=1;rounded=0;fontSize=14;" parent="1" edge="1">
          <mxGeometry width="50" height="50" relative="1" as="geometry">
            <mxPoint x="100" y="680" as="sourcePoint" />
            <mxPoint x="1280" y="680" as="targetPoint" />
          </mxGeometry>
        </mxCell>
        <mxCell id="xishepXIR4gV4NVoZ816-61" value="Confirmation&amp;nbsp;" style="endArrow=classic;html=1;rounded=0;fontSize=14;" parent="1" edge="1">
          <mxGeometry width="50" height="50" relative="1" as="geometry">
            <mxPoint x="1480" y="640" as="sourcePoint" />
            <mxPoint x="300" y="640" as="targetPoint" />
          </mxGeometry>
        </mxCell>
        <mxCell id="xishepXIR4gV4NVoZ816-62" value="Store User Information&amp;nbsp;" style="endArrow=classic;html=1;rounded=0;fontSize=14;" parent="1" edge="1">
          <mxGeometry width="50" height="50" relative="1" as="geometry">
            <mxPoint x="300" y="600" as="sourcePoint" />
            <mxPoint x="1480" y="600" as="targetPoint" />
          </mxGeometry>
        </mxCell>
        <mxCell id="xishepXIR4gV4NVoZ816-63" value="Validate User Details&amp;nbsp;" style="endArrow=classic;html=1;rounded=0;fontSize=14;" parent="1" edge="1">
          <mxGeometry width="50" height="50" relative="1" as="geometry">
            <mxPoint x="1280" y="560" as="sourcePoint" />
            <mxPoint x="300" y="560" as="targetPoint" />
          </mxGeometry>
        </mxCell>
        <mxCell id="xishepXIR4gV4NVoZ816-64" value="Select recipient and send&amp;nbsp;&lt;div&gt;message&lt;/div&gt;" style="endArrow=classic;html=1;rounded=0;fontSize=14;" parent="1" source="aM9ryv3xv72pqoxQDRHE-2" edge="1">
          <mxGeometry width="50" height="50" relative="1" as="geometry">
            <mxPoint x="820" y="300" as="sourcePoint" />
            <mxPoint x="680" y="240" as="targetPoint" />
            <Array as="points">
              <mxPoint x="620" y="240" />
            </Array>
          </mxGeometry>
        </mxCell>
        <mxCell id="rf5bGzepv-eeC7YseT4m-1" value="Send Profile Information" style="endArrow=classic;html=1;rounded=0;fontSize=14;" parent="1" edge="1">
          <mxGeometry width="50" height="50" relative="1" as="geometry">
            <mxPoint x="1500" y="1680" as="sourcePoint" />
            <mxPoint x="2080" y="1680" as="targetPoint" />
          </mxGeometry>
        </mxCell>
        <mxCell id="rf5bGzepv-eeC7YseT4m-2" value="Fetch Full Profile Details&amp;nbsp;" style="endArrow=classic;html=1;rounded=0;fontSize=14;" parent="1" edge="1">
          <mxGeometry width="50" height="50" relative="1" as="geometry">
            <mxPoint x="2080" y="1640" as="sourcePoint" />
            <mxPoint x="1500" y="1640" as="targetPoint" />
          </mxGeometry>
        </mxCell>
        <mxCell id="rf5bGzepv-eeC7YseT4m-3" value="Display User Profile&amp;nbsp;" style="endArrow=classic;html=1;rounded=0;fontSize=14;" parent="1" edge="1">
          <mxGeometry width="50" height="50" relative="1" as="geometry">
            <mxPoint x="2080" y="1720" as="sourcePoint" />
            <mxPoint x="100" y="1720" as="targetPoint" />
          </mxGeometry>
        </mxCell>
        <mxCell id="rf5bGzepv-eeC7YseT4m-4" value="Click on a Profile&amp;nbsp;" style="endArrow=classic;html=1;rounded=0;fontSize=14;" parent="1" edge="1">
          <mxGeometry width="50" height="50" relative="1" as="geometry">
            <mxPoint x="100" y="1600" as="sourcePoint" />
            <mxPoint x="2080" y="1600" as="targetPoint" />
          </mxGeometry>
        </mxCell>
        <mxCell id="v0SLhJWpcFx3YnPBfEW3-3" value="&lt;span style=&quot;font-size: 14px;&quot;&gt;Login Page&lt;/span&gt;" style="rounded=0;whiteSpace=wrap;html=1;" parent="1" vertex="1">
          <mxGeometry x="1240" y="1800" width="100" height="40" as="geometry" />
        </mxCell>
        <mxCell id="v0SLhJWpcFx3YnPBfEW3-4" value="&lt;span style=&quot;font-size: 14px;&quot;&gt;Recipient&lt;/span&gt;" style="rounded=0;whiteSpace=wrap;html=1;" parent="1" vertex="1">
          <mxGeometry x="1040" y="1800" width="100" height="40" as="geometry" />
        </mxCell>
        <mxCell id="v0SLhJWpcFx3YnPBfEW3-5" value="&lt;span style=&quot;font-size: 14px;&quot;&gt;Notification Service&lt;/span&gt;" style="rounded=0;whiteSpace=wrap;html=1;" parent="1" vertex="1">
          <mxGeometry x="840" y="1800" width="100" height="40" as="geometry" />
        </mxCell>
        <mxCell id="v0SLhJWpcFx3YnPBfEW3-6" value="&lt;span style=&quot;font-size: 14px;&quot;&gt;Messaging Service&lt;/span&gt;" style="rounded=0;whiteSpace=wrap;html=1;" parent="1" vertex="1">
          <mxGeometry x="640" y="1800" width="100" height="40" as="geometry" />
        </mxCell>
        <mxCell id="v0SLhJWpcFx3YnPBfEW3-7" value="&lt;span style=&quot;font-size: 14px;&quot;&gt;Home Page&lt;/span&gt;" style="rounded=0;whiteSpace=wrap;html=1;" parent="1" vertex="1">
          <mxGeometry x="440" y="1800" width="100" height="40" as="geometry" />
        </mxCell>
        <mxCell id="v0SLhJWpcFx3YnPBfEW3-8" value="&lt;span style=&quot;font-size: 14px;&quot;&gt;Aunthentication Service&lt;/span&gt;" style="rounded=0;whiteSpace=wrap;html=1;" parent="1" vertex="1">
          <mxGeometry x="240" y="1800" width="100" height="40" as="geometry" />
        </mxCell>
        <mxCell id="v0SLhJWpcFx3YnPBfEW3-9" value="&lt;span style=&quot;font-size: 14px;&quot;&gt;User&lt;/span&gt;" style="rounded=0;whiteSpace=wrap;html=1;" parent="1" vertex="1">
          <mxGeometry x="40" y="1800" width="100" height="40" as="geometry" />
        </mxCell>
        <mxCell id="v0SLhJWpcFx3YnPBfEW3-10" value="&lt;span style=&quot;font-size: 14px;&quot;&gt;Users&lt;/span&gt;" style="rounded=0;whiteSpace=wrap;html=1;" parent="1" vertex="1">
          <mxGeometry x="1840" y="1800" width="100" height="40" as="geometry" />
        </mxCell>
        <mxCell id="v0SLhJWpcFx3YnPBfEW3-11" value="&lt;span style=&quot;font-size: 11px;&quot;&gt;Event Management Page&lt;/span&gt;" style="rounded=0;whiteSpace=wrap;html=1;" parent="1" vertex="1">
          <mxGeometry x="1640" y="1800" width="100" height="40" as="geometry" />
        </mxCell>
        <mxCell id="v0SLhJWpcFx3YnPBfEW3-12" value="&lt;div&gt;&lt;br&gt;&lt;/div&gt;&lt;span style=&quot;color: rgb(0, 0, 0); font-family: Helvetica; font-size: 14px; font-style: normal; font-variant-ligatures: normal; font-variant-caps: normal; font-weight: 400; letter-spacing: normal; orphans: 2; text-align: center; text-indent: 0px; text-transform: none; widows: 2; word-spacing: 0px; -webkit-text-stroke-width: 0px; white-space: normal; background-color: rgb(251, 251, 251); text-decoration-thickness: initial; text-decoration-style: initial; text-decoration-color: initial; display: inline !important; float: none;&quot;&gt;Database&lt;/span&gt;&lt;div&gt;&lt;br&gt;&lt;/div&gt;" style="rounded=0;whiteSpace=wrap;html=1;" parent="1" vertex="1">
          <mxGeometry x="1440" y="1800" width="100" height="40" as="geometry" />
        </mxCell>
        <mxCell id="v0SLhJWpcFx3YnPBfEW3-13" value="&lt;span style=&quot;font-size: 14px;&quot;&gt;Profile Page&lt;/span&gt;" style="rounded=0;whiteSpace=wrap;html=1;" parent="1" vertex="1">
          <mxGeometry x="2040" y="1800" width="100" height="40" as="geometry" />
        </mxCell>
        <mxCell id="v0SLhJWpcFx3YnPBfEW3-18" value="" style="shape=curlyBracket;whiteSpace=wrap;html=1;rounded=1;labelPosition=left;verticalLabelPosition=middle;align=right;verticalAlign=middle;size=0.5;" parent="1" vertex="1">
          <mxGeometry x="-57.5" y="120" width="77.5" height="280" as="geometry" />
        </mxCell>
        <mxCell id="v0SLhJWpcFx3YnPBfEW3-19" value="" style="shape=curlyBracket;whiteSpace=wrap;html=1;rounded=1;labelPosition=left;verticalLabelPosition=middle;align=right;verticalAlign=middle;size=0.5;" parent="1" vertex="1">
          <mxGeometry x="-60" y="660" width="80" height="180" as="geometry" />
        </mxCell>
        <mxCell id="v0SLhJWpcFx3YnPBfEW3-20" value="" style="shape=curlyBracket;whiteSpace=wrap;html=1;rounded=1;labelPosition=left;verticalLabelPosition=middle;align=right;verticalAlign=middle;" parent="1" vertex="1">
          <mxGeometry x="-50" y="1160" width="70" height="280" as="geometry" />
        </mxCell>
        <mxCell id="v0SLhJWpcFx3YnPBfEW3-21" value="" style="shape=curlyBracket;whiteSpace=wrap;html=1;rounded=1;labelPosition=left;verticalLabelPosition=middle;align=right;verticalAlign=middle;" parent="1" vertex="1">
          <mxGeometry x="-50" y="1480" width="70" height="280" as="geometry" />
        </mxCell>
        <mxCell id="v0SLhJWpcFx3YnPBfEW3-22" value="" style="shape=curlyBracket;whiteSpace=wrap;html=1;rounded=1;labelPosition=left;verticalLabelPosition=middle;align=right;verticalAlign=middle;" parent="1" vertex="1">
          <mxGeometry x="-50" y="880" width="70" height="240" as="geometry" />
        </mxCell>
        <mxCell id="v0SLhJWpcFx3YnPBfEW3-23" value="" style="shape=curlyBracket;whiteSpace=wrap;html=1;rounded=1;labelPosition=left;verticalLabelPosition=middle;align=right;verticalAlign=middle;" parent="1" vertex="1">
          <mxGeometry x="-60" y="460" width="80" height="180" as="geometry" />
        </mxCell>
        <mxCell id="v0SLhJWpcFx3YnPBfEW3-24" value="&lt;div style=&quot;font-family: JetBrainsMono, Consolas, &amp;quot;Courier New&amp;quot;, monospace; line-height: 24px; white-space-collapse: preserve;&quot;&gt;&lt;font style=&quot;font-size: 25px;&quot;&gt;User Sends a Message&lt;/font&gt;&lt;/div&gt;" style="text;html=1;align=center;verticalAlign=middle;resizable=0;points=[];autosize=1;strokeColor=none;fillColor=none;labelBackgroundColor=none;fontColor=default;" parent="1" vertex="1">
          <mxGeometry x="-370" y="240" width="300" height="40" as="geometry" />
        </mxCell>
        <mxCell id="v0SLhJWpcFx3YnPBfEW3-25" value="&lt;div style=&quot;font-family: JetBrainsMono, Consolas, &amp;quot;Courier New&amp;quot;, monospace; line-height: 24px; white-space-collapse: preserve;&quot;&gt;&lt;span&gt;&lt;font style=&quot;font-size: 25px;&quot;&gt;User Registration&lt;/font&gt;&lt;/span&gt;&lt;/div&gt;" style="text;html=1;align=center;verticalAlign=middle;resizable=0;points=[];autosize=1;strokeColor=none;fillColor=none;labelBackgroundColor=none;fontColor=default;fontSize=24;" parent="1" vertex="1">
          <mxGeometry x="-350" y="530" width="260" height="40" as="geometry" />
        </mxCell>
        <mxCell id="v0SLhJWpcFx3YnPBfEW3-26" value="&lt;span style=&quot;font-family: JetBrainsMono, Consolas, &amp;quot;Courier New&amp;quot;, monospace; font-size: 25px; white-space-collapse: preserve;&quot;&gt;User Login&lt;/span&gt;" style="text;html=1;align=center;verticalAlign=middle;resizable=0;points=[];autosize=1;strokeColor=none;fillColor=none;" parent="1" vertex="1">
          <mxGeometry x="-300" y="730" width="160" height="40" as="geometry" />
        </mxCell>
        <mxCell id="v0SLhJWpcFx3YnPBfEW3-27" value="&lt;font style=&quot;font-size: 14px;&quot;&gt;Faculty / Admin&lt;/font&gt;&lt;div&gt;&lt;font style=&quot;font-size: 14px;&quot;&gt;&amp;nbsp;Creates Event&lt;/font&gt;&lt;/div&gt;" style="endArrow=classic;html=1;rounded=0;" parent="1" edge="1">
          <mxGeometry width="50" height="50" relative="1" as="geometry">
            <mxPoint x="300" y="920" as="sourcePoint" />
            <mxPoint x="1680" y="920" as="targetPoint" />
            <mxPoint x="1" as="offset" />
          </mxGeometry>
        </mxCell>
        <mxCell id="v0SLhJWpcFx3YnPBfEW3-30" value="&lt;div style=&quot;font-family: JetBrainsMono, Consolas, &amp;quot;Courier New&amp;quot;, monospace; line-height: 24px; white-space-collapse: preserve;&quot;&gt;&lt;span&gt;Event Creation&lt;/span&gt;&lt;/div&gt;" style="text;html=1;align=center;verticalAlign=middle;resizable=0;points=[];autosize=1;strokeColor=none;fillColor=none;labelBackgroundColor=none;fontColor=default;fontSize=25;" parent="1" vertex="1">
          <mxGeometry x="-330" y="980" width="220" height="40" as="geometry" />
        </mxCell>
        <mxCell id="v0SLhJWpcFx3YnPBfEW3-31" value="&lt;div style=&quot;font-family: JetBrainsMono, Consolas, &amp;quot;Courier New&amp;quot;, monospace; line-height: 24px; white-space-collapse: preserve;&quot;&gt;&lt;span&gt;Profile Updation&lt;/span&gt;&lt;/div&gt;" style="text;html=1;align=center;verticalAlign=middle;resizable=0;points=[];autosize=1;strokeColor=none;fillColor=none;labelBackgroundColor=none;fontColor=default;fontSize=25;" parent="1" vertex="1">
          <mxGeometry x="-320" y="1283" width="240" height="40" as="geometry" />
        </mxCell>
        <mxCell id="v0SLhJWpcFx3YnPBfEW3-32" value="&lt;div style=&quot;font-family: JetBrainsMono, Consolas, &amp;quot;Courier New&amp;quot;, monospace; line-height: 24px; white-space-collapse: preserve;&quot;&gt;&lt;span&gt;User Search&lt;/span&gt;&lt;/div&gt;" style="text;html=1;align=center;verticalAlign=middle;resizable=0;points=[];autosize=1;strokeColor=none;fillColor=none;labelBackgroundColor=none;fontColor=default;fontSize=25;" parent="1" vertex="1">
          <mxGeometry x="-265" y="1593" width="170" height="40" as="geometry" />
        </mxCell>
        <mxCell id="cVwqkIex1P7A7BbKHSIP-1" value="&lt;h3&gt;&lt;font style=&quot;font-size: 40px;&quot;&gt;Alumini Connect Portal&lt;/font&gt;&lt;/h3&gt;" style="text;html=1;align=center;verticalAlign=middle;resizable=0;points=[];autosize=1;strokeColor=none;fillColor=none;" parent="1" vertex="1">
          <mxGeometry x="-400" y="-150" width="470" height="90" as="geometry" />
        </mxCell>
      </root>
    </mxGraphModel>
  </diagram>
</mxfile>
